# xmcd
#
# Track frame offsets:
#	182
#	13730
#	29687
#	45882
#	64955
#	81777
#
# Disc length: 1253 seconds
#
# Revision: 4
# Processed by: cddbd v1.5.1PL2 Copyright (c) Steve Scherf et al.
# Submitted via: dBpowerAMP V4.0
#
DISCID=4504e306
DTITLE=Various Artist - Hearing Is Believing (PROMO)
DYEAR=1995
DGENRE=Country
TTITLE0=David Ball - Look What Followed Me Home
TTITLE1=Russ Taff - Bein' Happy
TTITLE2=Dwight Yoakam - King Of Fools (Live)
TTITLE3=Travis Tritt - Outlaws Like Us
TTITLE4=Little Texas - Kick A Little
TTITLE5=Jeff Foxworthy - You Might Be A Redneck If ...
EXTD=
EXTT0=
EXTT1=
EXTT2=
EXTT3=
EXTT4=
EXTT5=
PLAYORDER=
